<svg t="1703847117410" class="icon" viewBox="140 140 750 750" version="1.1" xmlns="http://www.w3.org/2000/svg" p-id="1459" width="32" height="32"><path d="M523 846.9a325.72 325.72 0 1 1 230.3-95.4A323.57 323.57 0 0 1 523 846.9z m0-606.4a280.7 280.7 0 1 0 198.48 82.21A278.9 278.9 0 0 0 523 240.5z" p-id="1460"></path><path d="M394.32 414.61m-36.68 0a36.68 36.68 0 1 0 73.36 0 36.68 36.68 0 1 0-73.36 0Z" p-id="1461"></path><path d="M656.11 414.61m-36.39 0a36.39 36.39 0 1 0 72.78 0 36.39 36.39 0 1 0-72.78 0Z" p-id="1462"></path><path d="M523 714.52c-96.43 0-174.89-78.45-174.89-174.88a22.5 22.5 0 0 1 45 0c0 71.61 58.27 129.88 129.89 129.88s129.88-58.27 129.88-129.88a22.5 22.5 0 0 1 45 0c-0.03 96.43-78.48 174.88-174.88 174.88z" p-id="1463"></path></svg>
